<svg width="116" height="20" viewBox="0 0 116 20" fill="none" xmlns="http://www.w3.org/2000/svg">
<path d="M34.404 4.0019L30.1235 14.0746H29.1871L24.9066 4.0019H26.6456L29.0533 9.96599L29.7222 11.954L30.391 9.96599L32.7988 4.0019H34.404Z" fill="#293338"/>
<path d="M40.6932 11.1615H35.4763C35.6101 12.2218 36.5464 13.017 37.7503 13.017C38.6867 13.017 39.2218 12.6194 39.6231 12.3543L40.2919 13.4146C39.8906 13.8122 39.088 14.3424 37.6166 14.3424C35.6101 14.2098 34.1387 12.752 34.1387 10.7639C34.1387 8.77589 35.4763 7.318 37.6166 7.318C39.4893 7.318 40.8269 8.64335 40.8269 10.6314C40.6932 11.029 40.6932 11.1615 40.6932 11.1615ZM35.6101 10.2338H39.3555C39.2218 9.1735 38.5529 8.51082 37.6166 8.51082C36.5464 8.51082 35.7439 9.1735 35.6101 10.2338Z" fill="#293338"/>
<path d="M46.4427 7.44728L46.3089 8.90517C46.1752 8.77263 45.9076 8.77263 45.6401 8.77263C44.4362 8.77263 43.7674 9.70038 43.7674 10.6281V14.2066H42.296V7.57981H43.4999V8.90517C43.7674 8.10995 44.57 7.44728 45.7739 7.44728C46.0414 7.31474 46.1752 7.31474 46.4427 7.44728Z" fill="#293338"/>
<path d="M51.3917 13.5461L50.054 16.8595H48.5826L49.7865 14.0762L46.8437 7.44945H48.4489L50.4553 12.3533L52.4618 7.44945H53.9332L51.3917 13.5461Z" fill="#293338"/>
<path d="M54.8695 9.03626C54.8695 6.12048 57.0098 3.86738 60.2201 3.86738C62.0929 3.86738 63.163 4.53006 63.5643 4.79513L62.8954 5.98795C62.6279 5.72288 61.8253 5.19273 60.3539 5.19273C57.9461 5.19273 56.3409 6.65062 56.3409 9.03626C56.3409 11.2894 57.9461 12.8798 60.3539 12.8798C61.8253 12.8798 62.6279 12.3497 62.8954 12.2171L63.5643 13.2774C63.163 13.5425 62.0929 14.2051 60.2201 14.2051C57.0098 14.2051 54.8695 11.952 54.8695 9.03626Z" fill="#293338"/>
<path d="M69.0497 7.44747L68.9159 8.77282C68.7822 8.64029 68.5146 8.64028 68.2471 8.64028C67.0432 8.64028 66.3744 9.56803 66.3744 10.4958V14.0742H64.903V7.44747H66.1069V8.77282C66.3744 7.97761 67.177 7.31493 68.3809 7.31493C68.6484 7.31493 68.7822 7.31493 69.0497 7.44747Z" fill="#293338"/>
<path d="M76.1389 11.1574H70.9221C71.0558 12.2177 71.9922 13.0129 73.1961 13.0129C74.1324 13.0129 74.6675 12.6153 75.0688 12.3502L75.7376 13.4105C75.3363 13.8081 74.5337 14.3382 73.0623 14.3382C71.0558 14.3382 69.4507 12.8803 69.4507 10.8923C69.4507 8.90427 70.7883 7.44638 72.9286 7.44638C74.8013 7.44638 76.1389 8.77173 76.1389 10.7598C76.1389 11.0248 76.1389 11.1574 76.1389 11.1574ZM70.9221 10.2296H74.6675C74.5337 9.16934 73.8649 8.50666 72.9286 8.50666C71.8584 8.50666 71.1896 9.16934 70.9221 10.2296Z" fill="#293338"/>
<path d="M84.1657 7.44747V14.0742H82.828V13.014C82.293 13.6766 81.4904 14.2068 80.4203 14.2068C78.5475 14.2068 77.2099 12.7489 77.2099 10.7609C77.2099 8.77282 78.5475 7.31493 80.4203 7.31493C81.4904 7.31493 82.293 7.71254 82.828 8.37521V7.44747H84.1657ZM82.828 10.7609C82.828 9.56803 82.0254 8.64028 80.6878 8.64028C79.4839 8.64028 78.6813 9.56803 78.6813 10.7609C78.6813 11.9537 79.6177 12.8814 80.8216 12.8814C82.0254 12.8814 82.828 11.9537 82.828 10.7609Z" fill="#293338"/>
<path d="M86.8415 11.8206V8.63974H85.5039V7.44692H86.8415V5.19382H88.1792V7.44692H90.8545V8.63974H88.1792V11.6881C88.1792 12.6158 88.7142 12.8809 89.5168 12.8809C90.1857 12.8809 90.587 12.4833 90.7207 12.4833L91.2558 13.5436C90.9883 13.6761 90.4532 14.2062 89.2493 14.2062C87.7779 14.2062 86.8415 13.411 86.8415 11.8206Z" fill="#293338"/>
<path d="M92.0584 5.19545C92.0584 4.66531 92.4597 4.2677 93.1285 4.2677C93.6636 4.2677 94.1987 4.66531 94.1987 5.19545C94.1987 5.72559 93.6636 6.25573 93.1285 6.25573C92.4597 6.25573 92.0584 5.85813 92.0584 5.19545ZM92.3259 7.44855H93.7974V14.0753H92.3259V7.44855Z" fill="#293338"/>
<path d="M102.223 7.44638L99.1464 14.0732H97.9425L94.8659 7.44638H96.4711L98.6113 12.2177L100.618 7.44638H102.223Z" fill="#293338"/>
<path d="M109.445 11.1585H104.228C104.362 12.2187 105.298 13.014 106.502 13.014C107.438 13.014 107.973 12.6164 108.375 12.3513L109.044 13.279C108.642 13.6766 107.84 14.2068 106.368 14.2068C104.362 14.2068 102.757 12.7489 102.757 10.7609C102.757 8.77282 104.094 7.31493 106.234 7.31493C108.107 7.31493 109.445 8.64029 109.445 10.6283C109.445 11.0259 109.445 11.1585 109.445 11.1585ZM104.228 10.2307H107.973C107.84 9.17043 107.171 8.50775 106.234 8.50775C105.164 8.50775 104.496 9.17043 104.228 10.2307Z" fill="#293338"/>
<path d="M110.382 13.4105L111.051 12.3502C111.586 12.7478 112.389 13.1454 113.325 13.1454C114.128 13.1454 114.529 12.8803 114.529 12.3502C114.529 11.9526 114.128 11.6875 113.191 11.4224C111.854 11.1574 110.783 10.6272 110.783 9.43441C110.783 8.24159 111.854 7.44638 113.325 7.44638C114.395 7.44638 115.331 7.71145 115.866 8.10906L115.331 9.16934C114.663 8.77173 114.128 8.50666 113.325 8.50666C112.656 8.50666 112.255 8.77173 112.255 9.16934C112.255 9.56695 112.656 9.83202 113.726 10.0971C115.064 10.4947 116 10.8923 116 12.2177C116 13.4105 114.93 14.2057 113.325 14.2057C112.121 14.2057 111.185 13.9406 110.382 13.4105Z" fill="#293338"/>
<path d="M20.7719 10C20.7719 15.5228 16.2404 20 10.6506 20C5.06076 20 0.529297 15.5228 0.529297 10C0.529297 4.47715 5.06076 0 10.6506 0C16.2404 0 20.7719 4.47715 20.7719 10Z" fill="#293338"/>
<path fill-rule="evenodd" clip-rule="evenodd" d="M12.6485 15.0993H8.4636L3.99212 7.53462L6.46014 4.63577L12.6485 15.0993Z" fill="white"/>
<path fill-rule="evenodd" clip-rule="evenodd" d="M6.49369 4.25354C6.61718 4.26414 6.72794 4.33376 6.79104 4.44045L12.9794 14.904C13.0495 15.0226 13.0507 15.1697 12.9824 15.2893C12.9142 15.409 12.787 15.4828 12.6492 15.4828H8.46435C8.32872 15.4828 8.20318 15.4112 8.13416 15.2945L3.66268 7.72973C3.57938 7.5888 3.5947 7.41055 3.70082 7.2859L6.16884 4.38705C6.24919 4.29268 6.37019 4.24295 6.49369 4.25354ZM4.46227 7.57489L8.68319 14.7157H11.9768L6.40443 5.29371L4.46227 7.57489Z" fill="#293338"/>
<path fill-rule="evenodd" clip-rule="evenodd" d="M8.52025 15.0993H12.7035L17.1766 7.53474L14.707 4.63577L8.52025 15.0993Z" fill="#FDCB00"/>
<path fill-rule="evenodd" clip-rule="evenodd" d="M14.6738 4.25355C14.7972 4.24293 14.9182 4.29262 14.9986 4.38697L17.4683 7.28594C17.5745 7.4106 17.5898 7.58894 17.5064 7.7299L13.0333 15.2945C12.9643 15.4112 12.8387 15.4828 12.7031 15.4828H8.51991C8.38216 15.4828 8.25499 15.409 8.18674 15.2893C8.11849 15.1697 8.11963 15.0226 8.18974 14.9041L14.3765 4.44049C14.4395 4.3338 14.5503 4.26417 14.6738 4.25355ZM14.7632 5.29361L9.19228 14.7157H12.4843L16.7068 7.57505L14.7632 5.29361Z" fill="#293338"/>
</svg>
